<svg width="40" height="43" viewBox="0 0 40 43" fill="none" xmlns="http://www.w3.org/2000/svg">
<path fill-rule="evenodd" clip-rule="evenodd" d="M19 11L19 2H21L21 11L30 11V13L21 13L21 22H19L19 13L10 13V11L19 11Z" fill="white"/>
<path d="M5.72 40H4.94V33.04H5.79L8.44 37.29L11.07 33.04H11.91V40H11.13V34.27L8.43 38.64L5.72 34.29V40ZM13.9277 42.05L14.7677 40L12.7377 34.9H13.5777L15.1677 39.13L16.7377 34.9H17.5377L14.7077 42.05H13.9277ZM25.1291 39.29V40H20.4791V33.04H21.2691V39.29H25.1291ZM26.4452 34.12C26.2918 34.12 26.1585 34.0667 26.0452 33.96C25.9385 33.8467 25.8852 33.7133 25.8852 33.56C25.8852 33.4067 25.9385 33.2767 26.0452 33.17C26.1585 33.0567 26.2918 33 26.4452 33C26.5985 33 26.7285 33.0567 26.8352 33.17C26.9485 33.2767 27.0052 33.4067 27.0052 33.56C27.0052 33.7133 26.9485 33.8467 26.8352 33.96C26.7285 34.0667 26.5985 34.12 26.4452 34.12ZM26.0752 40V34.9H26.8152V40H26.0752ZM29.8994 40.15C29.3127 40.15 28.8294 40.0133 28.4494 39.74C28.076 39.46 27.846 39.11 27.7594 38.69H28.5194C28.5727 38.9033 28.7227 39.09 28.9694 39.25C29.216 39.4033 29.5227 39.48 29.8894 39.48C30.2494 39.48 30.5394 39.4033 30.7594 39.25C30.9794 39.0967 31.0894 38.8833 31.0894 38.61C31.0894 38.3967 31.0127 38.2233 30.8594 38.09C30.7127 37.9567 30.4594 37.8667 30.0994 37.82L29.3094 37.72C28.3427 37.6 27.8594 37.1367 27.8594 36.33C27.8594 36.03 27.9427 35.7633 28.1094 35.53C28.276 35.2967 28.5027 35.1133 28.7894 34.98C29.0827 34.84 29.416 34.77 29.7894 34.77C30.3094 34.77 30.7394 34.8967 31.0794 35.15C31.426 35.3967 31.6527 35.7233 31.7594 36.13H30.9994C30.926 35.91 30.786 35.74 30.5794 35.62C30.3727 35.5 30.116 35.44 29.8094 35.44C29.4427 35.44 29.1527 35.5233 28.9394 35.69C28.726 35.85 28.6194 36.0567 28.6194 36.31C28.6194 36.5233 28.6927 36.6867 28.8394 36.8C28.9927 36.9067 29.2427 36.9833 29.5894 37.03L30.3794 37.13C30.8594 37.19 31.2227 37.35 31.4694 37.61C31.7227 37.87 31.8494 38.1967 31.8494 38.59C31.8494 38.9033 31.7627 39.18 31.5894 39.42C31.4227 39.6533 31.1927 39.8333 30.8994 39.96C30.606 40.0867 30.2727 40.15 29.8994 40.15ZM34.572 40.04C34.092 40.04 33.7286 39.91 33.482 39.65C33.2353 39.3833 33.112 38.9967 33.112 38.49V35.57H32.172V34.9H33.112V33.24C33.2386 33.2333 33.362 33.2167 33.482 33.19C33.6086 33.1633 33.732 33.13 33.852 33.09V34.9H35.002V35.57H33.852V38.43C33.852 39.0567 34.1286 39.37 34.682 39.37H35.002V40.04H34.572Z" fill="white"/>
</svg>
