<svg width="111" height="46" viewBox="0 0 111 46" fill="none" xmlns="http://www.w3.org/2000/svg">
<rect x="0.5" y="0.5" width="110" height="45" rx="9.5" fill="#0D0C0F"/>
<rect x="0.5" y="0.5" width="110" height="45" rx="9.5" stroke="#28262D"/>
<path d="M26.3999 24.6C26.3999 23.6059 27.2058 22.8 28.1999 22.8C29.194 22.8 29.9999 23.6059 29.9999 24.6V31.8C29.9999 32.7941 29.194 33.6 28.1999 33.6C27.2058 33.6 26.3999 32.7941 26.3999 31.8V24.6Z" fill="#E6A000"/>
<path d="M31.1999 24.4V30.9167C31.1999 31.8258 31.7135 32.6568 32.5266 33.0633L32.5864 33.0932C33.2529 33.4265 33.9879 33.6 34.733 33.6H41.2324C42.3764 33.6 43.3614 32.7925 43.5858 31.6707L45.0258 24.4707C45.3228 22.9856 44.1869 21.6 42.6724 21.6H38.3999V16.8C38.3999 15.4745 37.3254 14.4 35.9999 14.4C35.3372 14.4 34.7999 14.9373 34.7999 15.6V16.4C34.7999 17.4386 34.463 18.4491 33.8399 19.28L32.1599 21.52C31.5368 22.3509 31.1999 23.3614 31.1999 24.4Z" fill="#E6A000"/>
<path d="M26.3999 24.6C26.3999 23.6059 27.2058 22.8 28.1999 22.8C29.194 22.8 29.9999 23.6059 29.9999 24.6V31.8C29.9999 32.7941 29.194 33.6 28.1999 33.6C27.2058 33.6 26.3999 32.7941 26.3999 31.8V24.6Z" stroke="white" stroke-width="2"/>
<path d="M31.1999 24.4V30.9167C31.1999 31.8258 31.7135 32.6568 32.5266 33.0633L32.5864 33.0932C33.2529 33.4265 33.9879 33.6 34.733 33.6H41.2324C42.3764 33.6 43.3614 32.7925 43.5858 31.6707L45.0258 24.4707C45.3228 22.9856 44.1869 21.6 42.6724 21.6H38.3999V16.8C38.3999 15.4745 37.3254 14.4 35.9999 14.4C35.3372 14.4 34.7999 14.9373 34.7999 15.6V16.4C34.7999 17.4386 34.463 18.4491 33.8399 19.28L32.1599 21.52C31.5368 22.3509 31.1999 23.3614 31.1999 24.4Z" stroke="white" stroke-width="2"/>
<path d="M58.8849 28V17.8182H61.0376V26.2251H65.4027V28H58.8849ZM66.8585 28V20.3636H68.9764V28H66.8585ZM67.9225 19.3793C67.6076 19.3793 67.3375 19.2749 67.1121 19.0661C66.89 18.8539 66.779 18.6004 66.779 18.3054C66.779 18.0137 66.89 17.7635 67.1121 17.5547C67.3375 17.3426 67.6076 17.2365 67.9225 17.2365C68.2373 17.2365 68.5058 17.3426 68.7278 17.5547C68.9532 17.7635 69.0659 18.0137 69.0659 18.3054C69.0659 18.6004 68.9532 18.8539 68.7278 19.0661C68.5058 19.2749 68.2373 19.3793 67.9225 19.3793ZM72.662 25.8026L72.667 23.2621H72.9752L75.4213 20.3636H77.8524L74.5661 24.2017H74.064L72.662 25.8026ZM70.743 28V17.8182H72.8609V28H70.743ZM75.5157 28L73.2686 24.674L74.6805 23.1776L77.9965 28H75.5157ZM82.1271 28.1491C81.3416 28.1491 80.6654 27.9901 80.0987 27.6719C79.5352 27.3504 79.101 26.8963 78.7961 26.3097C78.4912 25.7197 78.3387 25.022 78.3387 24.2166C78.3387 23.4311 78.4912 22.7417 78.7961 22.1484C79.101 21.5552 79.5303 21.0928 80.0838 20.7614C80.6406 20.4299 81.2935 20.2642 82.0426 20.2642C82.5464 20.2642 83.0153 20.3454 83.4495 20.5078C83.887 20.6669 84.2682 20.9072 84.593 21.2287C84.9211 21.5502 85.1763 21.9545 85.3586 22.4418C85.5409 22.9257 85.6321 23.4924 85.6321 24.142V24.7237H79.1839V23.4112H83.6384C83.6384 23.1063 83.5722 22.8362 83.4396 22.6009C83.307 22.3655 83.1231 22.1816 82.8877 22.049C82.6557 21.9131 82.3856 21.8452 82.0774 21.8452C81.7559 21.8452 81.4708 21.9197 81.2223 22.0689C80.977 22.2147 80.7848 22.4119 80.6455 22.6605C80.5063 22.9058 80.4351 23.1792 80.4318 23.4808V24.7287C80.4318 25.1065 80.5014 25.433 80.6406 25.7081C80.7831 25.9832 80.9836 26.1953 81.2421 26.3445C81.5007 26.4936 81.8072 26.5682 82.1619 26.5682C82.3972 26.5682 82.6126 26.535 82.8082 26.4688C83.0037 26.4025 83.1711 26.303 83.3103 26.1705C83.4495 26.0379 83.5556 25.8755 83.6285 25.6832L85.5873 25.8125C85.4879 26.2831 85.284 26.6941 84.9758 27.0455C84.6709 27.3935 84.2765 27.6652 83.7926 27.8608C83.312 28.053 82.7568 28.1491 82.1271 28.1491Z" fill="white"/>
</svg>
