<svg width="162" height="35" viewBox="0 0 162 35" fill="none" xmlns="http://www.w3.org/2000/svg">
<path d="M0.32 19.92C0.32 17.1467 0.92 14.68 2.12 12.52C3.32 10.3333 4.98667 8.64 7.12 7.44C9.28 6.21333 11.72 5.6 14.44 5.6C17.7733 5.6 20.6267 6.48 23 8.24C25.3733 10 26.96 12.4 27.76 15.44H20.24C19.68 14.2667 18.88 13.3733 17.84 12.76C16.8267 12.1467 15.6667 11.84 14.36 11.84C12.2533 11.84 10.5467 12.5733 9.24 14.04C7.93333 15.5067 7.28 17.4667 7.28 19.92C7.28 22.3733 7.93333 24.3333 9.24 25.8C10.5467 27.2667 12.2533 28 14.36 28C15.6667 28 16.8267 27.6933 17.84 27.08C18.88 26.4667 19.68 25.5733 20.24 24.4H27.76C26.96 27.44 25.3733 29.84 23 31.6C20.6267 33.3333 17.7733 34.2 14.44 34.2C11.72 34.2 9.28 33.6 7.12 32.4C4.98667 31.1733 3.32 29.48 2.12 27.32C0.92 25.16 0.32 22.6933 0.32 19.92ZM35.3888 9.36C34.1888 9.36 33.2021 9.01333 32.4288 8.32C31.6821 7.6 31.3088 6.72 31.3088 5.68C31.3088 4.61333 31.6821 3.73333 32.4288 3.04C33.2021 2.32 34.1888 1.96 35.3888 1.96C36.5621 1.96 37.5221 2.32 38.2688 3.04C39.0421 3.73333 39.4288 4.61333 39.4288 5.68C39.4288 6.72 39.0421 7.6 38.2688 8.32C37.5221 9.01333 36.5621 9.36 35.3888 9.36ZM38.7888 11.68V34H31.9488V11.68H38.7888ZM57.3456 11.44C59.959 11.44 62.039 12.2933 63.5856 14C65.159 15.68 65.9456 18 65.9456 20.96V34H59.1456V21.88C59.1456 20.3867 58.759 19.2267 57.9856 18.4C57.2123 17.5733 56.1723 17.16 54.8656 17.16C53.559 17.16 52.519 17.5733 51.7456 18.4C50.9723 19.2267 50.5856 20.3867 50.5856 21.88V34H43.7456V11.68H50.5856V14.64C51.279 13.6533 52.2123 12.88 53.3856 12.32C54.559 11.7333 55.879 11.44 57.3456 11.44ZM91.7387 22.48C91.7387 23.12 91.6988 23.7867 91.6188 24.48H76.1388C76.2454 25.8667 76.6854 26.9333 77.4588 27.68C78.2588 28.4 79.2321 28.76 80.3788 28.76C82.0854 28.76 83.2721 28.04 83.9388 26.6H91.2188C90.8454 28.0667 90.1654 29.3867 89.1788 30.56C88.2188 31.7333 87.0054 32.6533 85.5388 33.32C84.0721 33.9867 82.4321 34.32 80.6188 34.32C78.4321 34.32 76.4854 33.8533 74.7788 32.92C73.0721 31.9867 71.7388 30.6533 70.7788 28.92C69.8188 27.1867 69.3388 25.16 69.3388 22.84C69.3388 20.52 69.8054 18.4933 70.7388 16.76C71.6988 15.0267 73.0321 13.6933 74.7388 12.76C76.4454 11.8267 78.4054 11.36 80.6188 11.36C82.7788 11.36 84.6988 11.8133 86.3788 12.72C88.0588 13.6267 89.3654 14.92 90.2988 16.6C91.2588 18.28 91.7387 20.24 91.7387 22.48ZM84.7388 20.68C84.7388 19.5067 84.3388 18.5733 83.5388 17.88C82.7388 17.1867 81.7388 16.84 80.5388 16.84C79.3921 16.84 78.4188 17.1733 77.6188 17.84C76.8454 18.5067 76.3654 19.4533 76.1788 20.68H84.7388ZM85.2188 5.96L75.5788 10V5.28L85.2188 0.639998V5.96ZM113.627 5.92V11.4H102.187V17.32H110.747V22.64H102.187V34H95.3472V5.92H113.627ZM124.062 4.4V34H117.222V4.4H124.062ZM132.459 9.36C131.259 9.36 130.272 9.01333 129.499 8.32C128.752 7.6 128.379 6.72 128.379 5.68C128.379 4.61333 128.752 3.73333 129.499 3.04C130.272 2.32 131.259 1.96 132.459 1.96C133.632 1.96 134.592 2.32 135.339 3.04C136.112 3.73333 136.499 4.61333 136.499 5.68C136.499 6.72 136.112 7.6 135.339 8.32C134.592 9.01333 133.632 9.36 132.459 9.36ZM135.859 11.68V34H129.019V11.68H135.859ZM154.016 34L149.736 27.8L146.136 34H138.736L146.096 22.6L138.536 11.68H146.216L150.496 17.84L154.096 11.68H161.496L154.016 22.92L161.696 34H154.016Z" fill="#FFB100"/>
</svg>
