<svg width="123" height="46" viewBox="0 0 123 46" fill="none" xmlns="http://www.w3.org/2000/svg">
<rect x="0.5" y="0.5" width="122" height="45" rx="9.5" fill="#0D0C0F"/>
<rect x="0.5" y="0.5" width="122" height="45" rx="9.5" stroke="#28262D"/>
<path d="M32.6839 25.3419C32.8862 24.9381 33 24.4824 33 24C33 23.5176 32.8862 23.0619 32.6839 22.6581M32.6839 25.3419C32.1913 26.3251 31.1745 27 30 27C28.3431 27 27 25.6569 27 24C27 22.3431 28.3431 21 30 21C31.1745 21 32.1913 21.6749 32.6839 22.6581M32.6839 25.3419L39.3161 28.6581M32.6839 22.6581L39.3161 19.3419M39.3161 19.3419C39.8087 20.3251 40.8255 21 42 21C43.6569 21 45 19.6569 45 18C45 16.3431 43.6569 15 42 15C40.3431 15 39 16.3431 39 18C39 18.4824 39.1138 18.9381 39.3161 19.3419ZM39.3161 28.6581C39.1138 29.0619 39 29.5176 39 30C39 31.6569 40.3431 33 42 33C43.6569 33 45 31.6569 45 30C45 28.3431 43.6569 27 42 27C40.8255 27 39.8087 27.6749 39.3161 28.6581Z" stroke="white" stroke-width="2" stroke-linecap="round" stroke-linejoin="round"/>
<path d="M64.4084 20.7464C64.3686 20.3454 64.1979 20.0339 63.8963 19.8118C63.5947 19.5897 63.1854 19.4787 62.6683 19.4787C62.317 19.4787 62.0204 19.5284 61.7784 19.6278C61.5365 19.724 61.3509 19.8582 61.2216 20.0305C61.0956 20.2029 61.0327 20.3984 61.0327 20.6172C61.026 20.7995 61.0642 20.9586 61.147 21.0945C61.2332 21.2304 61.3509 21.348 61.5 21.4474C61.6491 21.5436 61.8215 21.6281 62.017 21.701C62.2126 21.7706 62.4214 21.8303 62.6435 21.88L63.5582 22.0987C64.0024 22.1982 64.41 22.3307 64.7812 22.4964C65.1525 22.6622 65.474 22.866 65.7457 23.108C66.0175 23.3499 66.228 23.6349 66.3771 23.9631C66.5296 24.2912 66.6075 24.6674 66.6108 25.0916C66.6075 25.7147 66.4484 26.255 66.1335 26.7124C65.822 27.1664 65.3712 27.5194 64.7812 27.7713C64.1946 28.0199 63.487 28.1442 62.6584 28.1442C61.8364 28.1442 61.1205 28.0182 60.5107 27.7663C59.9041 27.5144 59.4302 27.1416 59.0888 26.6477C58.7507 26.1506 58.5734 25.5357 58.5568 24.8033H60.6399C60.6631 25.1446 60.7609 25.4297 60.9332 25.6584C61.1089 25.8838 61.3426 26.0545 61.6342 26.1705C61.9292 26.2831 62.2623 26.3395 62.6335 26.3395C62.9981 26.3395 63.3146 26.2865 63.5831 26.1804C63.8549 26.0743 64.0653 25.9268 64.2145 25.7379C64.3636 25.549 64.4382 25.3319 64.4382 25.0866C64.4382 24.858 64.3703 24.6657 64.2344 24.5099C64.1018 24.3542 63.9063 24.2216 63.6477 24.1122C63.3925 24.0028 63.0793 23.9034 62.7081 23.8139L61.5994 23.5355C60.741 23.3267 60.0632 23.0002 59.5661 22.5561C59.0689 22.112 58.822 21.5137 58.8253 20.7614C58.822 20.1449 58.986 19.6063 59.3175 19.1456C59.6522 18.6849 60.1113 18.3253 60.6946 18.0668C61.2779 17.8082 61.9408 17.679 62.6832 17.679C63.4389 17.679 64.0985 17.8082 64.6619 18.0668C65.2287 18.3253 65.6695 18.6849 65.9844 19.1456C66.2992 19.6063 66.4616 20.1399 66.4716 20.7464H64.4084ZM70.2069 23.5852V28H68.089V17.8182H70.1472V21.7109H70.2367C70.4091 21.2602 70.6875 20.9072 71.072 20.652C71.4564 20.3935 71.9387 20.2642 72.5187 20.2642C73.049 20.2642 73.5113 20.3802 73.9058 20.6122C74.3035 20.8409 74.6117 21.1707 74.8305 21.6016C75.0525 22.0291 75.1619 22.5412 75.1586 23.1378V28H73.0407V23.5156C73.044 23.045 72.9247 22.6787 72.6827 22.4169C72.4441 22.1551 72.1094 22.0241 71.6785 22.0241C71.3901 22.0241 71.1349 22.0855 70.9129 22.2081C70.6941 22.3307 70.5218 22.5097 70.3958 22.745C70.2732 22.977 70.2102 23.2571 70.2069 23.5852ZM79.0729 28.1442C78.5857 28.1442 78.1515 28.0597 77.7703 27.8906C77.3892 27.7183 77.0876 27.4647 76.8655 27.13C76.6467 26.7919 76.5374 26.371 76.5374 25.8672C76.5374 25.4429 76.6153 25.0866 76.771 24.7983C76.9268 24.5099 77.1389 24.2779 77.4074 24.1023C77.6759 23.9266 77.9808 23.794 78.3222 23.7045C78.6669 23.6151 79.0281 23.5521 79.406 23.5156C79.8501 23.4692 80.2081 23.4261 80.4798 23.3864C80.7516 23.3433 80.9488 23.2803 81.0715 23.1974C81.1941 23.1146 81.2554 22.992 81.2554 22.8295V22.7997C81.2554 22.4848 81.156 22.2412 80.9571 22.0689C80.7616 21.8965 80.4832 21.8104 80.1219 21.8104C79.7407 21.8104 79.4375 21.8949 79.2121 22.0639C78.9867 22.2296 78.8376 22.4384 78.7646 22.6903L76.8058 22.5312C76.9053 22.0672 77.1008 21.6662 77.3925 21.3281C77.6842 20.9867 78.0603 20.7249 78.521 20.5426C78.9851 20.357 79.522 20.2642 80.1318 20.2642C80.5561 20.2642 80.9621 20.3139 81.3499 20.4134C81.741 20.5128 82.0873 20.6669 82.3889 20.8757C82.6939 21.0845 82.9342 21.353 83.1098 21.6811C83.2855 22.0059 83.3733 22.3954 83.3733 22.8494V28H81.3648V26.9411H81.3051C81.1825 27.1797 81.0184 27.3902 80.8129 27.5724C80.6074 27.7514 80.3605 27.8923 80.0722 27.995C79.7838 28.0945 79.4507 28.1442 79.0729 28.1442ZM79.6794 26.6825C79.991 26.6825 80.2661 26.6212 80.5047 26.4986C80.7433 26.3726 80.9306 26.2036 81.0665 25.9915C81.2024 25.7794 81.2703 25.5391 81.2703 25.2706V24.4602C81.204 24.5033 81.1129 24.5431 80.9969 24.5795C80.8842 24.6127 80.7566 24.6442 80.6141 24.674C80.4716 24.7005 80.329 24.7254 80.1865 24.7486C80.044 24.7685 79.9147 24.7867 79.7987 24.8033C79.5502 24.8397 79.3331 24.8977 79.1475 24.9773C78.9619 25.0568 78.8177 25.1645 78.7149 25.3004C78.6122 25.433 78.5608 25.5987 78.5608 25.7976C78.5608 26.0859 78.6652 26.3063 78.874 26.4588C79.0861 26.608 79.3546 26.6825 79.6794 26.6825ZM85.0864 28V20.3636H87.1397V21.696H87.2192C87.3584 21.2221 87.5921 20.8641 87.9202 20.6222C88.2484 20.3769 88.6262 20.2543 89.0537 20.2543C89.1598 20.2543 89.2742 20.2609 89.3968 20.2741C89.5194 20.2874 89.6271 20.3056 89.7199 20.3288V22.2081C89.6205 22.1783 89.483 22.1518 89.3073 22.1286C89.1316 22.1054 88.9709 22.0938 88.8251 22.0938C88.5135 22.0938 88.2351 22.1617 87.9898 22.2976C87.7479 22.4302 87.5556 22.6158 87.4131 22.8544C87.2739 23.093 87.2043 23.3681 87.2043 23.6797V28H85.0864ZM94.0096 28.1491C93.2241 28.1491 92.5479 27.9901 91.9812 27.6719C91.4177 27.3504 90.9835 26.8963 90.6786 26.3097C90.3737 25.7197 90.2212 25.022 90.2212 24.2166C90.2212 23.4311 90.3737 22.7417 90.6786 22.1484C90.9835 21.5552 91.4128 21.0928 91.9663 20.7614C92.5231 20.4299 93.176 20.2642 93.9251 20.2642C94.4289 20.2642 94.8978 20.3454 95.332 20.5078C95.7695 20.6669 96.1507 20.9072 96.4755 21.2287C96.8036 21.5502 97.0588 21.9545 97.2411 22.4418C97.4234 22.9257 97.5146 23.4924 97.5146 24.142V24.7237H91.0664V23.4112H95.5209C95.5209 23.1063 95.4547 22.8362 95.3221 22.6009C95.1895 22.3655 95.0056 22.1816 94.7702 22.049C94.5382 21.9131 94.2681 21.8452 93.9599 21.8452C93.6384 21.8452 93.3533 21.9197 93.1048 22.0689C92.8595 22.2147 92.6673 22.4119 92.528 22.6605C92.3888 22.9058 92.3176 23.1792 92.3143 23.4808V24.7287C92.3143 25.1065 92.3839 25.433 92.5231 25.7081C92.6656 25.9832 92.8661 26.1953 93.1246 26.3445C93.3832 26.4936 93.6897 26.5682 94.0444 26.5682C94.2797 26.5682 94.4951 26.535 94.6907 26.4688C94.8862 26.4025 95.0536 26.303 95.1928 26.1705C95.332 26.0379 95.4381 25.8755 95.511 25.6832L97.4698 25.8125C97.3704 26.2831 97.1665 26.6941 96.8583 27.0455C96.5534 27.3935 96.159 27.6652 95.6751 27.8608C95.1945 28.053 94.6393 28.1491 94.0096 28.1491Z" fill="white"/>
</svg>
