<svg width="38" height="34" viewBox="0 0 38 34" fill="none" xmlns="http://www.w3.org/2000/svg">
<g filter="url(#filter0_d_38_1410)">
<path d="M27.2031 16.4457C25.8259 16.4457 24.5322 15.8644 23.3603 14.9128L23.6434 13.5703L23.6528 13.5169C23.9116 12.091 24.7122 9.69378 27.2022 9.69378C28.0982 9.69403 28.9575 10.0501 29.591 10.6837C30.2246 11.3173 30.5807 12.1765 30.5809 13.0725C30.5794 13.9677 30.2228 14.8258 29.5894 15.4584C28.9559 16.0909 28.0974 16.4463 27.2022 16.4466L27.2031 16.4457ZM27.2031 6.27472C24.0297 6.27472 21.5631 8.33534 20.5628 11.7291C19.0394 9.43878 17.8769 6.68534 17.2037 4.36597H13.7856V13.2572C13.7839 14.1011 13.4479 14.9099 12.8512 15.5066C12.2545 16.1032 11.4457 16.4392 10.6019 16.441C9.75825 16.4385 8.94989 16.1023 8.35336 15.5057C7.75682 14.9092 7.4206 14.1008 7.41812 13.2572V4.36597H4V13.2572C4 16.8994 6.96344 19.8835 10.6019 19.8835C14.2441 19.8835 17.2037 16.9003 17.2037 13.2572V11.7675C17.8675 13.1494 18.6831 14.5557 19.6741 15.796L17.5797 25.635H21.0756L22.5944 18.496C23.9228 19.3453 25.4509 19.8825 27.2041 19.8825C30.9541 19.8825 34.0009 16.816 34.0009 13.0707C34.0009 9.32065 30.9541 6.27378 27.2041 6.27378L27.2031 6.27472Z" fill="white"/>
</g>
<defs>
<filter id="filter0_d_38_1410" x="0" y="0" width="38.001" height="38" filterUnits="userSpaceOnUse" color-interpolation-filters="sRGB">
<feFlood flood-opacity="0" result="BackgroundImageFix"/>
<feColorMatrix in="SourceAlpha" type="matrix" values="0 0 0 0 0 0 0 0 0 0 0 0 0 0 0 0 0 0 127 0" result="hardAlpha"/>
<feOffset dy="4"/>
<feGaussianBlur stdDeviation="2"/>
<feComposite in2="hardAlpha" operator="out"/>
<feColorMatrix type="matrix" values="0 0 0 0 0 0 0 0 0 0 0 0 0 0 0 0 0 0 0.25 0"/>
<feBlend mode="normal" in2="BackgroundImageFix" result="effect1_dropShadow_38_1410"/>
<feBlend mode="normal" in="SourceGraphic" in2="effect1_dropShadow_38_1410" result="shape"/>
</filter>
</defs>
</svg>
